<svg width="150" height="148" viewBox="0 0 150 148" fill="none" xmlns="http://www.w3.org/2000/svg">
<g filter="url(#filter0_i_25_45)">
<path d="M116.644 88.1502C116.33 88.0651 116.002 88.042 115.679 88.082C115.356 88.122 115.045 88.2244 114.762 88.3834C114.479 88.5424 114.231 88.7548 114.031 89.0085C113.832 89.2622 113.685 89.5522 113.599 89.862C111.347 97.9542 106.463 105.092 99.6981 110.178C92.9329 115.264 84.6614 118.015 76.1564 118.009H73.8436C65.3387 118.016 57.0671 115.265 50.3017 110.18C43.5363 105.095 38.6521 97.9567 36.4008 89.8645C36.3148 89.5548 36.1677 89.2648 35.9681 89.0112C35.7685 88.7575 35.5202 88.5452 35.2374 88.3862C34.9546 88.2273 34.6428 88.1249 34.3199 88.0848C33.997 88.0448 33.6692 88.0679 33.3553 88.1529C33.0415 88.2378 32.7476 88.383 32.4906 88.58C32.2336 88.7771 32.0185 89.0221 31.8575 89.3012C31.6965 89.5803 31.5928 89.888 31.5523 90.2066C31.5119 90.5253 31.5354 90.8486 31.6216 91.1583C34.1604 100.284 39.6678 108.333 47.2966 114.068C54.9254 119.803 64.2528 122.906 73.8436 122.899H76.1564C85.7454 122.896 95.0687 119.79 102.696 114.055C110.323 108.321 115.832 100.276 118.379 91.1545C118.465 90.8448 118.488 90.5215 118.447 90.2029C118.407 89.8843 118.303 89.5768 118.142 89.2978C117.981 89.0188 117.766 88.7739 117.509 88.577C117.251 88.3801 116.958 88.2351 116.644 88.1502ZM128.033 21.6742C113.968 7.79646 94.8913 2.99563e-05 75.0001 0C55.1089 -2.99561e-05 36.0323 7.79635 21.9671 21.674C7.90182 35.5517 3.03611e-05 54.3739 0 73.9999C-3.03609e-05 93.6259 7.9017 112.448 21.9669 126.326C36.0321 140.204 55.1086 148 74.9999 148C94.8911 148 113.968 140.204 128.033 126.326C142.098 112.448 150 93.6261 150 74.0001C150 54.3741 142.098 35.5519 128.033 21.6742ZM75 143.11C36.3775 143.11 4.95603 112.107 4.95603 74C4.95603 35.8926 36.3775 4.88995 75 4.88995C113.622 4.88995 145.044 35.8926 145.044 74C145.044 112.107 113.622 143.11 75 143.11ZM35.8481 56.3965C36.1735 56.3965 36.4957 56.3333 36.7964 56.2104C37.097 56.0875 37.3702 55.9074 37.6003 55.6804C37.8304 55.4534 38.0129 55.1838 38.1374 54.8872C38.262 54.5906 38.326 54.2726 38.326 53.9516C38.326 52.1792 39.0396 50.4794 40.3098 49.2261C41.58 47.9728 43.3028 47.2687 45.0992 47.2687C46.8955 47.2687 48.6183 47.9728 49.8885 49.2261C51.1587 50.4794 51.8723 52.1792 51.8723 53.9516C51.8723 54.6 52.1333 55.2219 52.5981 55.6804C53.0628 56.1389 53.693 56.3965 54.3502 56.3965C55.0074 56.3965 55.6377 56.1389 56.1024 55.6804C56.5671 55.2219 56.8282 54.6 56.8282 53.9516C56.8282 50.8823 55.5925 47.9387 53.3929 45.7684C51.1932 43.5981 48.2099 42.3789 45.0992 42.3789C41.9884 42.3789 39.0051 43.5981 36.8055 45.7684C34.6058 47.9387 33.3701 50.8823 33.3701 53.9516C33.3701 54.2726 33.4342 54.5906 33.5587 54.8872C33.6832 55.1838 33.8657 55.4534 34.0958 55.6804C34.326 55.9074 34.5991 56.0875 34.8998 56.2104C35.2004 56.3333 35.5226 56.3965 35.8481 56.3965ZM95.6498 56.3965C95.9752 56.3965 96.2974 56.3333 96.5981 56.2104C96.8987 56.0875 97.1719 55.9074 97.402 55.6804C97.6321 55.4534 97.8146 55.1838 97.9391 54.8872C98.0637 54.5906 98.1277 54.2726 98.1277 53.9516C98.1277 52.1792 98.8413 50.4794 100.112 49.2261C101.382 47.9728 103.105 47.2687 104.901 47.2687C106.697 47.2687 108.42 47.9728 109.69 49.2261C110.96 50.4794 111.674 52.1792 111.674 53.9516C111.674 54.6 111.935 55.2219 112.4 55.6804C112.864 56.1389 113.495 56.3965 114.152 56.3965C114.809 56.3965 115.439 56.1389 115.904 55.6804C116.369 55.2219 116.63 54.6 116.63 53.9516C116.63 50.8823 115.394 47.9387 113.195 45.7684C110.995 43.5981 108.012 42.3789 104.901 42.3789C101.79 42.3789 98.8068 43.5981 96.6071 45.7684C94.4075 47.9387 93.1718 50.8823 93.1718 53.9516C93.1718 54.2726 93.2359 54.5906 93.3604 54.8872C93.4849 55.1838 93.6674 55.4534 93.8975 55.6804C94.1276 55.9074 94.4008 56.0875 94.7015 56.2104C95.0021 56.3333 95.3243 56.3965 95.6498 56.3965Z" fill="#2C2B2D"/>
</g>
<defs>
<filter id="filter0_i_25_45" x="0" y="0" width="150" height="152" filterUnits="userSpaceOnUse" color-interpolation-filters="sRGB">
<feFlood flood-opacity="0" result="BackgroundImageFix"/>
<feBlend mode="normal" in="SourceGraphic" in2="BackgroundImageFix" result="shape"/>
<feColorMatrix in="SourceAlpha" type="matrix" values="0 0 0 0 0 0 0 0 0 0 0 0 0 0 0 0 0 0 127 0" result="hardAlpha"/>
<feOffset dy="4"/>
<feGaussianBlur stdDeviation="2"/>
<feComposite in2="hardAlpha" operator="arithmetic" k2="-1" k3="1"/>
<feColorMatrix type="matrix" values="0 0 0 0 0 0 0 0 0 0 0 0 0 0 0 0 0 0 0.25 0"/>
<feBlend mode="normal" in2="shape" result="effect1_innerShadow_25_45"/>
</filter>
</defs>
</svg>
