<svg width="16" height="21" viewBox="0 0 16 21" fill="none" xmlns="http://www.w3.org/2000/svg">
<path d="M15.4667 4.34468L10.1333 0.788639C9.93428 0.656754 9.69777 0.57689 9.45042 0.558042C9.20308 0.539194 8.95473 0.58211 8.73333 0.681958C8.51345 0.78046 8.32854 0.931169 8.1991 1.11738C8.06966 1.30359 8.00075 1.51802 8 1.73692V11.8835C7.19468 11.4526 6.27328 11.2232 5.33334 11.2197C4.2785 11.2197 3.24736 11.4978 2.3703 12.0188C1.49323 12.5398 0.809645 13.2803 0.405978 14.1466C0.00231084 15.013 -0.103307 15.9663 0.102481 16.8861C0.308269 17.8058 0.81622 18.6507 1.5621 19.3137C2.30798 19.9768 3.25829 20.4284 4.29285 20.6114C5.32742 20.7943 6.39977 20.7004 7.37431 20.3416C8.34885 19.9827 9.1818 19.375 9.76784 18.5953C10.3539 17.8155 10.6667 16.8988 10.6667 15.9611V4.10761L13.8667 6.24124C14.0067 6.33463 14.1661 6.40259 14.3358 6.44122C14.5054 6.47985 14.6819 6.48841 14.8552 6.46639C15.0286 6.44438 15.1953 6.39223 15.346 6.31292C15.4967 6.23361 15.6283 6.1287 15.7333 6.00417C15.8384 5.87964 15.9148 5.73793 15.9583 5.58714C16.0017 5.43635 16.0114 5.27942 15.9866 5.12532C15.9618 4.97123 15.9032 4.82297 15.814 4.68903C15.7248 4.55509 15.6067 4.43808 15.4667 4.34468Z" fill="#7F8E59"/>
</svg>
