<svg width="17" height="31" viewBox="0 0 17 31" fill="none" xmlns="http://www.w3.org/2000/svg">
<path d="M9.99827 5.52979C11.3208 5.52979 12.3786 4.30107 12.3786 2.76489C12.3786 1.22865 11.3208 0 9.99827 0C8.6757 0 7.61755 1.22865 7.61755 2.76489C7.61755 4.30107 8.6757 5.52979 9.99827 5.52979ZM9.99827 13.8245H16.1877V11.0596H11.9027L9.23638 6.26712C8.77825 5.46067 8.15705 5.01351 7.39545 5.01351C7.20513 5.01351 6.87006 5.05022 6.63374 5.13427L0 7.74171V15.4834H2.38054V9.95362L4.79269 8.84766L0 30.9668H2.38054L5.75484 19.612L8.74849 24.3311V30.9668H11.01V22.1192L7.61589 15.4834L8.79098 11.2072L9.99827 13.8245Z" fill="#9BB068"/>
</svg>
